<svg xmlns="http://www.w3.org/2000/svg" viewBox="0 0 89.58 99.21"><title>Asset 40</title><g id="Layer_2" data-name="Layer 2"><g id="Layer_1-2" data-name="Layer 1"><path d="M89.55,35.81H0L8.09,3.58C9,.9,10.78,0,12.57,0H77c1.79,0,3.58,1.79,4.47,3.58ZM9,44.77c5.37,0,9-3.59,9-9H0A9,9,0,0,0,9,44.77Zm17.91,0c5.38,0,9-3.59,9-9H17.92A9,9,0,0,0,26.87,44.77Zm17.92,0c5.38,0,9-3.59,9-9H35.83A9,9,0,0,0,44.79,44.77Zm17.92,0c5.37,0,9-3.59,9-9H53.75A9,9,0,0,0,62.71,44.77Zm17.91,0c5.38,0,9-3.59,9-9H71.67A9,9,0,0,0,80.62,44.77Z"/><path d="M84.21,50c-.9,0-1.79.9-3.59.9-3.58,0-7.16-1.79-8.06-5.4H70.77c-1.79,2.71-4.48,5.4-8.06,5.4a8.63,8.63,0,0,1-8.06-6.14h-1.8C52,48.21,48.37,50,44.79,50s-7.17-1.79-8.06-5.24H34.94C34,48.21,30.46,50,26.87,50s-7.16-1.79-8.06-5.24H17C16.12,48.21,12.54,50,9,50a6.79,6.79,0,0,1-3.58-.89,17.36,17.36,0,0,1-1,4.48V89.51a9,9,0,0,0,9,9h3.72V62.66H39.49V99.21H76a9,9,0,0,0,9-8.95V54.48A43.22,43.22,0,0,1,84.21,50ZM73.28,83.92H51.8V61.54H74.18V83.92Z"/></g></g></svg>