<svg xmlns="http://www.w3.org/2000/svg" xml:space="preserve" width="512px" height="512px" version="1.1" style="shape-rendering:geometricPrecision; text-rendering:geometricPrecision; image-rendering:optimizeQuality; fill-rule:evenodd; clip-rule:evenodd" viewBox="0 0 512 512" xmlns:xlink="http://www.w3.org/1999/xlink">
 <defs>
  <style type="text/css">
   
    .fil0 {fill:black}
   
  </style>
 </defs>
 <g id="Layer_x0020_1">
  <metadata id="CorelCorpID_0Corel-Layer"></metadata>
  <path class="fil0" d="M350 354l-343 0c-2,0 -4,-1 -5,-3 -2,-1 -2,-3 -2,-5l6 -33c0,0 0,-1 0,-1 21,-77 68,-86 70,-87 0,0 1,0 1,0l3 0c0,1 0,2 1,3 1,3 3,5 5,7 24,19 54,28 84,28 11,0 20,-1 30,-3 9,-2 19,-5 27,-9l0 53c0,6 5,11 11,11l62 0c6,0 10,-3 10,-9 0,0 0,0 0,0 4,-25 11,-48 17,-71 2,-7 4,-14 6,-21l-12 -47c0,-2 0,-4 2,-6 1,-2 3,-3 5,-3l53 -2c3,0 5,2 6,4l51 104c17,2 35,8 55,18 4,1 5,6 3,9 -1,4 -6,5 -9,3 -34,-17 -62,-21 -83,-12 -29,12 -39,44 -44,59 -3,8 -4,13 -10,13z" id="id_101" style="fill: rgb(255, 255, 255);"></path>
  <path class="fil0" d="M321 146l0 -19 -24 -31 -37 0c-4,0 -7,-3 -7,-7 0,-4 3,-7 7,-7l40 0c2,0 4,1 6,3l25 33 51 0c2,0 4,1 5,2 1,2 2,3 2,5l0 19c-3,-1 -6,-1 -9,-1l-53 2c-2,0 -4,0 -6,1z" id="id_102" style="fill: rgb(255, 255, 255);"></path>
  <path class="fil0" d="M414 179c-1,0 -2,0 -2,0l-10 -21 0 -32c1,-6 -1,-10 -4,-14 5,-1 10,-2 16,-2 4,0 7,3 7,7l0 55c0,4 -3,7 -7,7z" id="id_103" style="fill: rgb(255, 255, 255);"></path>
  <path class="fil0" d="M438 430c-41,0 -74,-33 -74,-74 0,-41 33,-74 74,-74 41,0 74,33 74,74 0,41 -33,74 -74,74zm0 -29c-26,0 -46,-20 -46,-45 0,-26 20,-46 46,-46 25,0 45,20 45,46 0,25 -20,45 -45,45zm0 -77c-18,0 -32,14 -32,32 0,17 14,31 32,31 17,0 31,-14 31,-31 0,-18 -14,-32 -31,-32z" id="id_104" style="fill: rgb(255, 255, 255);"></path>
  <path class="fil0" d="M384 323c-2,0 -4,-1 -6,-3l-12 -17c-2,-3 -1,-8 2,-10 3,-2 8,-1 10,2l12 17c2,3 1,7 -2,10 -1,1 -3,1 -4,1zm28 -22c-2,0 -4,-1 -6,-3l-13 -18c-2,-3 -1,-7 2,-10 3,-2 7,-1 10,2l13 18c2,3 1,7 -2,10 -1,1 -3,1 -4,1z" id="id_105" style="fill: rgb(255, 255, 255);"></path>
  <path class="fil0" d="M108 430c-37,0 -68,-27 -73,-63l29 0c2,8 6,15 12,21 9,8 20,13 32,13 21,0 38,-14 44,-34l29 0c-5,36 -36,63 -73,63zm-30 -63l59 0c-5,12 -16,20 -29,20 -13,0 -25,-8 -30,-20z" id="id_106" style="fill: rgb(255, 255, 255);"></path>
  <path class="fil0" d="M170 250c-21,0 -49,-5 -75,-26 -1,0 -2,-1 -2,-2 -2,-4 -3,-9 1,-14 6,-7 18,-7 41,-1 5,1 39,4 60,-8 0,0 0,0 0,0 1,-1 15,-7 28,2 12,9 13,17 12,23 -3,13 -22,20 -37,23 -3,0 -13,3 -28,3z" id="id_107" style="fill: rgb(255, 255, 255);"></path>
 </g>
</svg>